<svg width="360" height="360" viewBox="0 0 360 360" fill="none" xmlns="http://www.w3.org/2000/svg">
  <g transform="translate(6.05,48.96)">
<path d="M125.498 174.596C172.211 175.23 220.275 174.788 267.056 174.655L267.04 190.669C248.707 191.653 228.843 197.431 214.626 209.497C205.636 217.127 197.533 232.885 207.183 243.146C213.74 250.12 222.864 250.635 231.815 250.977L231.716 270.911C219.356 270.691 206.162 270.889 193.786 270.973C191.877 266.622 190.178 264.425 186.582 261.414C172.902 253.785 156.154 255.332 149.302 270.871L111.03 270.977L110.938 251.118C118.209 250.722 124.952 250.103 131.552 246.578C139.341 242.421 142.397 233.21 137.788 225.507C133.155 217.762 121.4 219.288 113.677 218.3C109.046 217.707 104.272 217.11 99.7141 215.988C78.5712 210.067 60.9409 200.995 49.4424 182.04C70.7207 181.133 92.2846 183.08 113.485 181.424C117.497 181.111 121.427 181.256 125.439 181.39L125.498 174.596Z" fill="#C66A4F"/>
<path d="M157.855 0C165.842 1.58599 179.54 12.0313 184.895 18.5054C199.348 35.9776 201.683 52.3965 200.058 74.0769C213.088 62.7671 207.525 51.1449 221.66 41.5415C221.63 58.0197 225.746 62.9003 234.008 76.4917C224.395 82.5122 209.118 89.3747 198.572 94.9346L192.479 93.7362C180.049 77.3451 184.531 66.5275 161.379 78.6015C140.402 89.5408 142.547 88.8434 151.394 109.821C146.193 117.028 146.504 122.533 146.602 130.972C142.073 128.649 140.929 127.841 137.551 124.053C134.711 120.03 134.314 116.754 133.798 112.075C120.043 129.543 122.223 152.065 138.726 166.899L132.452 166.936L130.77 165.918C101.722 148.129 91.5554 111.131 108.97 81.7928C116.622 68.901 127.583 56.6209 123.729 40.6639C135.767 48.2933 137.779 58.1243 137.825 71.3711C150.969 59.9467 160.023 47.6288 162.495 29.8938C164.097 18.3977 161.311 10.579 157.855 0Z" fill="#C66A4F"/>
<path d="M173.602 79.8262L175.536 79.9489C177.447 81.207 186.53 96.8001 188.689 100.07C191.654 100.21 194.618 100.386 197.579 100.596C201.064 104.83 205.423 113.209 206.656 118.532C205.868 120.697 204.152 123.96 203.096 126.12C205.712 131.651 209.548 137.043 212.384 142.592C215.718 149.117 208.144 150.847 203.11 153.442C198.473 155.816 193.895 158.303 189.379 160.899L185.458 162.294C180.596 155.86 178.13 148.261 173.706 141.841L165.581 140.55C161.613 135.19 157.925 127.84 155.674 121.567C156.209 119.832 158.961 114.653 159.934 112.588C157.45 107.357 152.885 97.0748 151.335 92.0197C156.154 88.7392 168.092 82.7495 173.602 79.8262Z" fill="#C66A4F"/>
<path d="M288.764 55.5693C288.827 55.5702 288.893 55.5517 288.953 55.5715C290.589 56.1098 297.231 70.5169 298.45 72.9299C294.732 74.5524 290.711 76.6679 287.137 78.598C262.632 91.8317 237.016 103.667 212.642 117.041L211.878 117.428L211.283 117.041C211.257 110.406 207.304 104.485 203.537 99.3265C211.685 96.3352 226.283 88.0111 234.421 83.8011C252.619 74.5519 270.734 65.141 288.764 55.5693Z" fill="#C66A4F"/>
<path d="M244.545 107.963C244.833 109.191 244.973 113.342 244.941 114.736C244.578 130.627 237.13 146.94 225.596 157.857C222.199 161.071 216.614 165.769 211.958 166.727C211.166 166.89 206.172 166.803 205.107 166.787C206.883 165.455 208.761 163.837 210.491 162.409C227.729 146.227 218.515 141.833 210.413 125.167C220.256 121.094 234.217 112.949 244.545 107.963Z" fill="#C66A4F"/>
  </g>
</svg>