<svg width="418" height="128" viewBox="0 0 418 128" fill="none" xmlns="http://www.w3.org/2000/svg">
<path d="M59.664 74.368C59.376 77.312 58.544 80.064 57.168 82.624C55.792 85.184 53.968 87.424 51.696 89.344C49.456 91.264 46.832 92.768 43.824 93.856C40.816 94.912 37.52 95.44 33.936 95.44C27.504 95.44 21.952 94.016 17.28 91.168C12.608 88.32 8.992 84.336 6.432 79.216C3.904 74.096 2.64 68.128 2.64 61.312C2.64 56.064 3.408 51.248 4.944 46.864C6.512 42.48 8.72 38.704 11.568 35.536C14.416 32.336 17.792 29.872 21.696 28.144C25.632 26.384 29.968 25.504 34.704 25.504C37.776 25.504 40.352 25.856 42.432 26.56C44.512 27.232 46.112 27.904 47.232 28.576C48.352 29.248 49.056 29.584 49.344 29.584C49.728 29.584 50.272 29.248 50.976 28.576C51.712 27.904 52.4 27.248 53.04 26.608C53.712 25.936 54.16 25.6 54.384 25.6C54.544 25.6 54.672 25.664 54.768 25.792C54.896 25.888 54.992 26.096 55.056 26.416L59.808 45.184C59.904 45.44 59.92 45.664 59.856 45.856C59.792 46.048 59.632 46.176 59.376 46.24C59.152 46.272 58.944 46.224 58.752 46.096C58.592 45.968 58.448 45.744 58.32 45.424C56.592 40.976 54.64 37.424 52.464 34.768C50.288 32.08 47.936 30.144 45.408 28.96C42.912 27.744 40.272 27.136 37.488 27.136C34.608 27.136 31.936 27.792 29.472 29.104C27.008 30.384 24.848 32.288 22.992 34.816C21.168 37.344 19.744 40.448 18.72 44.128C17.696 47.776 17.184 51.968 17.184 56.704C17.184 64.032 18.176 70.16 20.16 75.088C22.144 79.984 24.88 83.68 28.368 86.176C31.856 88.64 35.872 89.872 40.416 89.872C45.184 89.872 49.168 88.496 52.368 85.744C55.6 82.992 57.76 79.152 58.848 74.224C58.912 74.032 58.976 73.904 59.04 73.84C59.104 73.744 59.2 73.696 59.328 73.696C59.456 73.696 59.536 73.76 59.568 73.888C59.632 74.016 59.664 74.176 59.664 74.368ZM77.5732 23.44V91.024C77.5732 91.472 77.6692 91.84 77.8612 92.128C78.0532 92.384 78.3572 92.56 78.7732 92.656L81.3653 93.088C81.5893 93.12 81.7332 93.184 81.7972 93.28C81.8932 93.344 81.9412 93.44 81.9412 93.568C81.9412 93.696 81.8932 93.808 81.7972 93.904C81.7012 93.968 81.5572 94 81.3653 94H62.0692C61.9412 94 61.8292 93.968 61.7332 93.904C61.6372 93.808 61.5892 93.696 61.5892 93.568C61.5892 93.472 61.6372 93.376 61.7332 93.28C61.8292 93.184 62.0052 93.104 62.2612 93.04L64.8052 92.656C65.2212 92.56 65.5252 92.384 65.7172 92.128C65.9092 91.84 66.0052 91.488 66.0052 91.072V28.48C66.0052 28.224 65.9412 28.048 65.8132 27.952C65.7172 27.824 65.5412 27.744 65.2852 27.712H62.2132C62.0212 27.712 61.8772 27.68 61.7812 27.616C61.7172 27.52 61.6852 27.408 61.6852 27.28C61.6852 27.152 61.7332 27.056 61.8292 26.992C61.9252 26.896 62.0532 26.832 62.2132 26.8L75.6532 23.008C76.0052 22.88 76.2612 22.8 76.4212 22.768C76.5812 22.736 76.7412 22.72 76.9012 22.72C77.1252 22.72 77.2852 22.8 77.3812 22.96C77.5092 23.088 77.5732 23.248 77.5732 23.44ZM121.875 68.944C121.875 69.328 121.763 69.632 121.539 69.856C121.315 70.08 120.963 70.192 120.483 70.192H90.723V69.136H109.395C110.003 69.136 110.307 68.8 110.307 68.128C110.307 62.56 109.539 58.432 108.003 55.744C106.499 53.056 104.659 51.712 102.483 51.712C100.659 51.712 99.075 52.336 97.731 53.584C96.419 54.8 95.395 56.672 94.659 59.2C93.923 61.696 93.555 64.864 93.555 68.704C93.555 75.264 94.947 80.192 97.731 83.488C100.515 86.752 104.147 88.384 108.627 88.384C111.891 88.384 114.659 87.504 116.931 85.744C119.203 83.952 120.515 81.52 120.867 78.448C120.899 78.288 120.947 78.176 121.011 78.112C121.107 78.048 121.187 78.016 121.251 78.016C121.347 78.016 121.427 78.064 121.491 78.16C121.587 78.224 121.635 78.368 121.635 78.592C121.443 81.696 120.515 84.496 118.851 86.992C117.219 89.456 115.027 91.408 112.275 92.848C109.555 94.256 106.483 94.96 103.059 94.96C99.059 94.96 95.539 94.08 92.499 92.32C89.459 90.56 87.075 88.08 85.347 84.88C83.651 81.68 82.803 77.936 82.803 73.648C82.803 69.104 83.667 65.104 85.395 61.648C87.123 58.192 89.571 55.504 92.739 53.584C95.907 51.632 99.619 50.656 103.875 50.656C107.555 50.656 110.739 51.456 113.427 53.056C116.115 54.624 118.195 56.784 119.667 59.536C121.139 62.288 121.875 65.424 121.875 68.944ZM148.454 89.44V88.96L147.878 89.392V58.624C147.878 56.352 147.398 54.608 146.438 53.392C145.478 52.144 144.102 51.52 142.31 51.52C140.294 51.52 138.79 52.016 137.798 53.008C136.838 54 136.358 55.12 136.358 56.368V60.256C136.358 61.888 135.782 63.248 134.63 64.336C133.478 65.424 132.006 65.968 130.214 65.968C128.934 65.968 127.878 65.584 127.046 64.816C126.214 64.048 125.798 62.896 125.798 61.36C125.798 59.664 126.47 58 127.814 56.368C129.19 54.704 131.206 53.344 133.862 52.288C136.55 51.2 139.846 50.656 143.75 50.656C149.062 50.656 153.014 51.76 155.606 53.968C158.23 56.176 159.542 59.296 159.542 63.328V88.24C159.542 89.36 159.734 90.176 160.118 90.688C160.502 91.168 160.998 91.408 161.606 91.408C162.182 91.408 162.694 91.232 163.142 90.88C163.59 90.496 163.862 89.92 163.958 89.152C163.99 89.024 164.038 88.944 164.102 88.912C164.166 88.848 164.23 88.816 164.294 88.816C164.39 88.816 164.454 88.848 164.486 88.912C164.55 88.976 164.582 89.072 164.582 89.2C164.582 89.84 164.294 90.608 163.718 91.504C163.142 92.368 162.23 93.152 160.982 93.856C159.734 94.528 158.054 94.864 155.942 94.864C153.382 94.864 151.494 94.368 150.278 93.376C149.062 92.352 148.454 91.04 148.454 89.44ZM123.398 84.64C123.398 81.12 124.854 78.288 127.766 76.144C130.71 74 135.318 72.928 141.59 72.928C143.574 72.928 145.206 73.12 146.486 73.504C147.766 73.888 148.95 74.368 150.038 74.944L149.606 75.472C148.518 74.96 147.414 74.56 146.294 74.272C145.174 73.984 143.91 73.84 142.502 73.84C140.102 73.84 138.246 74.64 136.934 76.24C135.622 77.808 134.966 80.032 134.966 82.912C134.966 85.696 135.59 87.824 136.838 89.296C138.086 90.736 139.718 91.456 141.734 91.456C143.078 91.456 144.406 91.136 145.718 90.496C147.03 89.856 148.134 88.928 149.03 87.712L149.558 88.192C148.15 90.368 146.198 92.032 143.702 93.184C141.238 94.336 138.582 94.912 135.734 94.912C132.086 94.912 129.11 93.952 126.806 92.032C124.534 90.112 123.398 87.648 123.398 84.64ZM180.365 69.952C180.365 65.696 180.973 62.144 182.189 59.296C183.405 56.448 184.973 54.304 186.893 52.864C188.813 51.424 190.813 50.704 192.893 50.704C195.325 50.704 197.197 51.456 198.509 52.96C199.821 54.432 200.477 56.56 200.477 59.344C200.477 61.776 199.917 63.584 198.797 64.768C197.677 65.952 196.269 66.544 194.573 66.544C193.005 66.544 191.821 66.112 191.021 65.248C190.253 64.352 189.837 63.04 189.773 61.312L189.725 59.776C189.693 58.784 189.485 58.032 189.101 57.52C188.717 57.008 188.045 56.752 187.085 56.752C186.061 56.752 185.085 57.248 184.157 58.24C183.229 59.232 182.461 60.72 181.853 62.704C181.277 64.688 180.989 67.184 180.989 70.192L180.365 69.952ZM180.941 51.808L180.989 67.408V90.736C180.989 91.152 181.101 91.504 181.325 91.792C181.549 92.08 181.869 92.272 182.285 92.368L186.989 93.136C187.213 93.168 187.357 93.216 187.421 93.28C187.517 93.344 187.565 93.44 187.565 93.568C187.565 93.696 187.501 93.808 187.373 93.904C187.277 93.968 187.133 94 186.941 94H165.581C165.389 94 165.229 93.952 165.101 93.856C165.005 93.76 164.957 93.664 164.957 93.568C164.957 93.472 165.021 93.376 165.149 93.28C165.277 93.184 165.453 93.104 165.677 93.04L168.221 92.656C168.637 92.56 168.925 92.384 169.085 92.128C169.277 91.872 169.373 91.568 169.373 91.216V56.32C169.373 56.096 169.325 55.904 169.229 55.744C169.133 55.584 168.957 55.504 168.701 55.504H165.485C165.389 55.472 165.293 55.424 165.197 55.36C165.101 55.264 165.053 55.168 165.053 55.072C165.053 54.944 165.101 54.848 165.197 54.784C165.293 54.688 165.437 54.608 165.629 54.544L179.069 51.28C179.389 51.184 179.629 51.12 179.789 51.088C179.981 51.056 180.157 51.04 180.317 51.04C180.541 51.04 180.701 51.12 180.797 51.28C180.893 51.408 180.941 51.584 180.941 51.808Z" fill="#3D3A36"/>
<path d="M241.086 26.8C241.822 26.8 242.494 26.688 243.102 26.464C243.742 26.24 244.254 26.032 244.638 25.84C245.054 25.616 245.342 25.504 245.502 25.504C245.63 25.504 245.742 25.568 245.838 25.696C245.934 25.824 246.03 26.128 246.126 26.608L250.35 43.552C250.414 43.776 250.414 43.952 250.35 44.08C250.286 44.208 250.19 44.288 250.062 44.32C249.966 44.352 249.854 44.352 249.726 44.32C249.63 44.256 249.518 44.128 249.39 43.936C247.054 39.808 244.91 36.592 242.958 34.288C241.006 31.984 239.102 30.368 237.246 29.44C235.39 28.48 233.438 28 231.39 28H222.03V91.072C222.03 91.456 222.222 91.776 222.606 92.032C222.99 92.256 223.55 92.4 224.286 92.464L229.902 93.04C230.158 93.072 230.334 93.136 230.43 93.232C230.558 93.296 230.622 93.408 230.622 93.568C230.622 93.664 230.558 93.76 230.43 93.856C230.334 93.952 230.19 94 229.998 94H202.782C202.558 94 202.398 93.952 202.302 93.856C202.206 93.76 202.158 93.664 202.158 93.568C202.158 93.312 202.382 93.152 202.83 93.088L206.622 92.464C207.262 92.368 207.742 92.208 208.062 91.984C208.382 91.76 208.542 91.456 208.542 91.072V29.728C208.542 29.344 208.382 29.04 208.062 28.816C207.742 28.592 207.262 28.432 206.622 28.336L202.83 27.712C202.382 27.648 202.158 27.488 202.158 27.232C202.158 27.104 202.206 27.008 202.302 26.944C202.398 26.848 202.558 26.8 202.782 26.8H241.086ZM218.526 59.872H231.054C233.838 59.872 235.902 59.296 237.246 58.144C238.622 56.96 239.438 54.8 239.694 51.664C239.758 51.44 239.822 51.296 239.886 51.232C239.982 51.136 240.078 51.088 240.174 51.088C240.494 51.056 240.702 51.264 240.798 51.712L244.638 68.176C244.734 68.4 244.75 68.576 244.686 68.704C244.622 68.8 244.542 68.88 244.446 68.944C244.318 68.976 244.19 68.992 244.062 68.992C243.966 68.96 243.838 68.848 243.678 68.656C242.27 66.704 241.022 65.168 239.934 64.048C238.846 62.928 237.71 62.16 236.526 61.744C235.374 61.296 233.982 61.072 232.35 61.072H218.526V59.872ZM270.609 50.704C274.897 50.704 278.689 51.648 281.985 53.536C285.281 55.424 287.857 58.048 289.713 61.408C291.601 64.736 292.545 68.592 292.545 72.976C292.545 77.296 291.569 81.12 289.617 84.448C287.697 87.744 285.041 90.32 281.649 92.176C278.289 94.032 274.433 94.96 270.081 94.96C265.793 94.96 262.001 94.032 258.705 92.176C255.441 90.32 252.881 87.744 251.025 84.448C249.169 81.152 248.241 77.328 248.241 72.976C248.241 68.656 249.185 64.832 251.073 61.504C252.993 58.144 255.633 55.504 258.993 53.584C262.385 51.664 266.257 50.704 270.609 50.704ZM273.057 93.904C275.041 93.712 276.673 92.752 277.953 91.024C279.233 89.296 280.081 86.832 280.497 83.632C280.913 80.4 280.849 76.464 280.305 71.824C279.729 67.12 278.849 63.264 277.665 60.256C276.513 57.216 275.089 54.992 273.393 53.584C271.729 52.176 269.857 51.584 267.777 51.808C265.729 52 264.065 52.976 262.785 54.736C261.537 56.496 260.721 58.976 260.337 62.176C259.985 65.376 260.081 69.28 260.625 73.888C261.169 78.464 262.033 82.272 263.217 85.312C264.401 88.352 265.825 90.592 267.489 92.032C269.185 93.472 271.041 94.096 273.057 93.904ZM309.384 69.952C309.384 65.696 309.992 62.144 311.208 59.296C312.424 56.448 313.992 54.304 315.912 52.864C317.832 51.424 319.832 50.704 321.912 50.704C324.344 50.704 326.216 51.456 327.528 52.96C328.84 54.432 329.496 56.56 329.496 59.344C329.496 61.776 328.936 63.584 327.816 64.768C326.696 65.952 325.288 66.544 323.592 66.544C322.024 66.544 320.84 66.112 320.04 65.248C319.272 64.352 318.856 63.04 318.792 61.312L318.744 59.776C318.712 58.784 318.504 58.032 318.12 57.52C317.736 57.008 317.064 56.752 316.104 56.752C315.08 56.752 314.104 57.248 313.176 58.24C312.248 59.232 311.48 60.72 310.872 62.704C310.296 64.688 310.008 67.184 310.008 70.192L309.384 69.952ZM309.96 51.808L310.008 67.408V90.736C310.008 91.152 310.12 91.504 310.344 91.792C310.568 92.08 310.888 92.272 311.304 92.368L316.008 93.136C316.232 93.168 316.376 93.216 316.44 93.28C316.536 93.344 316.584 93.44 316.584 93.568C316.584 93.696 316.52 93.808 316.392 93.904C316.296 93.968 316.152 94 315.96 94H294.6C294.408 94 294.248 93.952 294.12 93.856C294.024 93.76 293.976 93.664 293.976 93.568C293.976 93.472 294.04 93.376 294.168 93.28C294.296 93.184 294.472 93.104 294.696 93.04L297.24 92.656C297.656 92.56 297.944 92.384 298.104 92.128C298.296 91.872 298.392 91.568 298.392 91.216V56.32C298.392 56.096 298.344 55.904 298.248 55.744C298.152 55.584 297.976 55.504 297.72 55.504H294.504C294.408 55.472 294.312 55.424 294.216 55.36C294.12 55.264 294.072 55.168 294.072 55.072C294.072 54.944 294.12 54.848 294.216 54.784C294.312 54.688 294.456 54.608 294.648 54.544L308.088 51.28C308.408 51.184 308.648 51.12 308.808 51.088C309 51.056 309.176 51.04 309.336 51.04C309.56 51.04 309.72 51.12 309.816 51.28C309.912 51.408 309.96 51.584 309.96 51.808ZM357.769 91.984C361.993 92.784 365.273 93.696 367.609 94.72C369.977 95.744 371.625 96.976 372.553 98.416C373.481 99.888 373.945 101.68 373.945 103.792C373.945 107.856 372.009 111.168 368.137 113.728C364.265 116.288 358.777 117.568 351.673 117.568C346.329 117.568 341.977 117.12 338.617 116.224C335.289 115.328 332.841 114.08 331.273 112.48C329.705 110.912 328.921 109.12 328.921 107.104C328.921 104.448 330.041 102.288 332.281 100.624C334.521 98.96 338.297 97.776 343.609 97.072L343.705 97.648C341.529 98.096 339.865 98.88 338.713 100C337.561 101.152 336.985 102.464 336.985 103.936C336.985 107.68 338.233 110.688 340.729 112.96C343.257 115.264 347.113 116.416 352.297 116.416C355.049 116.416 357.337 116.128 359.161 115.552C361.017 114.976 362.393 114.112 363.289 112.96C364.217 111.808 364.681 110.384 364.681 108.688C364.681 107.408 364.313 106.272 363.577 105.28C362.841 104.32 361.513 103.44 359.593 102.64C357.705 101.84 355.033 101.088 351.577 100.384C347.577 99.488 344.425 98.624 342.121 97.792C339.849 96.992 338.233 96.064 337.273 95.008C336.313 93.952 335.833 92.656 335.833 91.12C335.833 89.712 336.201 88.464 336.937 87.376C337.673 86.256 338.889 85.296 340.585 84.496C342.281 83.696 344.569 83.072 347.449 82.624L347.497 83.008C346.793 83.264 346.185 83.648 345.673 84.16C345.161 84.672 344.905 85.28 344.905 85.984C344.905 86.72 345.209 87.376 345.817 87.952C346.425 88.496 347.641 89.088 349.465 89.728C351.289 90.368 354.057 91.12 357.769 91.984ZM358.393 53.296L358.873 52.288C360.121 49.6 361.577 47.44 363.241 45.808C364.905 44.176 366.937 43.36 369.337 43.36C371.417 43.36 373.033 43.952 374.185 45.136C375.369 46.288 375.961 47.776 375.961 49.6C375.961 51.136 375.577 52.336 374.809 53.2C374.041 54.064 372.937 54.496 371.497 54.496C370.537 54.496 369.737 54.224 369.097 53.68C368.457 53.104 367.865 52.448 367.321 51.712C366.809 50.976 366.281 50.336 365.737 49.792C365.193 49.216 364.553 48.928 363.817 48.928C362.921 48.928 362.105 49.312 361.369 50.08C360.665 50.816 359.961 51.856 359.257 53.2L358.393 53.296ZM370.777 66.736C370.777 69.968 369.897 72.848 368.137 75.376C366.409 77.904 364.041 79.904 361.033 81.376C358.057 82.816 354.665 83.536 350.857 83.536C346.825 83.536 343.305 82.832 340.297 81.424C337.289 79.984 334.953 78.08 333.289 75.712C331.625 73.312 330.793 70.672 330.793 67.792C330.793 64.528 331.625 61.616 333.289 59.056C334.953 56.464 337.321 54.416 340.393 52.912C343.497 51.408 347.177 50.656 351.433 50.656C355.401 50.656 358.825 51.392 361.705 52.864C364.617 54.336 366.857 56.304 368.425 58.768C369.993 61.2 370.777 63.856 370.777 66.736ZM348.937 51.904C347.433 51.968 346.137 52.624 345.049 53.872C343.993 55.12 343.225 56.848 342.745 59.056C342.265 61.264 342.153 63.856 342.409 66.832C342.729 70 343.353 72.752 344.281 75.088C345.209 77.424 346.377 79.216 347.785 80.464C349.193 81.68 350.713 82.256 352.345 82.192C354.617 82.064 356.377 80.672 357.625 78.016C358.873 75.36 359.289 71.776 358.873 67.264C358.425 62.4 357.289 58.592 355.465 55.84C353.673 53.088 351.497 51.776 348.937 51.904ZM413.794 68.944C413.794 69.328 413.682 69.632 413.458 69.856C413.234 70.08 412.882 70.192 412.402 70.192H382.642V69.136H401.314C401.922 69.136 402.226 68.8 402.226 68.128C402.226 62.56 401.458 58.432 399.922 55.744C398.418 53.056 396.578 51.712 394.402 51.712C392.578 51.712 390.994 52.336 389.65 53.584C388.338 54.8 387.314 56.672 386.578 59.2C385.842 61.696 385.474 64.864 385.474 68.704C385.474 75.264 386.866 80.192 389.65 83.488C392.434 86.752 396.066 88.384 400.546 88.384C403.81 88.384 406.578 87.504 408.85 85.744C411.122 83.952 412.434 81.52 412.786 78.448C412.818 78.288 412.866 78.176 412.93 78.112C413.026 78.048 413.106 78.016 413.17 78.016C413.266 78.016 413.346 78.064 413.41 78.16C413.506 78.224 413.554 78.368 413.554 78.592C413.362 81.696 412.434 84.496 410.77 86.992C409.138 89.456 406.946 91.408 404.194 92.848C401.474 94.256 398.402 94.96 394.978 94.96C390.978 94.96 387.458 94.08 384.418 92.32C381.378 90.56 378.994 88.08 377.266 84.88C375.57 81.68 374.722 77.936 374.722 73.648C374.722 69.104 375.586 65.104 377.314 61.648C379.042 58.192 381.49 55.504 384.658 53.584C387.826 51.632 391.538 50.656 395.794 50.656C399.474 50.656 402.658 51.456 405.346 53.056C408.034 54.624 410.114 56.784 411.586 59.536C413.058 62.288 413.794 65.424 413.794 68.944Z" fill="#3D3A36"/>
<path d="M373.5 98C374.067 97.978 376.827 98.0189 377.398 98.0191L380.39 98.0192L389.559 98.0189L395.875 98.0182L397.835 98.0182C398.314 98.0182 398.787 98.007 399.264 98.0483C399.266 98.4098 399.286 98.7595 399.284 99.1285C400.392 99.1486 401.544 99.108 402.643 99.1535C402.674 99.5052 402.672 99.9714 402.681 100.332C403.046 100.345 403.414 100.338 403.78 100.333C403.771 100.171 403.776 99.9601 403.776 99.7945C404.206 99.7965 404.693 99.758 405.14 99.7535L409.801 99.6937C410.95 99.6684 412.137 99.6266 413.284 99.6962C413.508 99.712 413.728 99.7605 413.884 99.9404C414.182 100.284 413.524 100.866 413.292 101.115C412.739 101.707 412.032 102.242 411.387 102.726C411.16 102.897 410.859 103.059 410.613 103.21C408.859 104.275 406.966 105.063 404.993 105.549C404.818 105.594 404.645 105.633 404.468 105.668C403.644 105.834 402.815 106.043 401.985 106.164C401.567 106.224 401.149 106.28 400.73 106.334C400.117 106.414 399.654 106.451 399.084 106.736C397.365 107.597 396.934 109.49 398.108 111.054C398.7 111.892 399.638 112.425 400.611 112.577C400.771 112.601 401.196 112.656 401.307 112.765L401.317 112.776C401.339 112.798 401.36 112.82 401.38 112.843C401.584 113.077 402.556 114.412 402.629 114.645C402.716 114.925 402.671 116.968 402.653 117.394C402.405 117.446 401.828 117.445 401.563 117.445L400.155 117.445L398.995 117.446C398.712 117.446 398.178 117.465 397.913 117.366C396.123 116.679 394.281 116.405 392.387 116.395C390.585 116.387 388.975 116.562 387.256 117.124C386.986 117.212 386.686 117.353 386.409 117.401C386.087 117.456 385.721 117.446 385.392 117.445L384.188 117.444L382.845 117.446C382.548 117.446 382.1 117.455 381.814 117.404C381.804 117.34 381.796 117.276 381.792 117.211C381.764 116.733 381.688 114.97 381.845 114.586C381.96 114.308 382.305 113.911 382.489 113.664C382.672 113.418 382.978 112.927 383.215 112.756C383.417 112.608 383.729 112.602 383.967 112.556C384.911 112.375 385.679 111.888 386.309 111.133C387.019 110.282 387.283 109.289 387.212 108.168C387.162 107.381 386.896 106.741 386.478 106.092C385.005 103.806 381.652 102.498 379.193 101.835C378.548 101.662 377.881 101.534 377.229 101.392C376.889 101.32 375.245 101.245 375 101C374.5 100.5 373.5 98.0192 373.5 98.0192V98Z" fill="#1A1714"/>
<path d="M13.865 98.0133L335 98L332.502 99.0106L331 100L329.874 101.177L328.46 103.066H20.0988L13.865 98.0133Z" fill="#1A1714"/>
<g clip-path="url(#clip0_76_4)">
<path d="M266.245 63.7801L266.457 63.736L266.57 63.5504L267.179 62.5493L271.151 61.9719L271.92 62.8668L272.096 63.0727L272.365 63.0364L277.237 62.3888L277.416 62.7418L278.026 68.6185L277.784 68.9897L273.434 69.7055L273.208 69.7431L273.088 69.9386L271.99 71.7438L271.899 71.8913L271.92 72.0633L274.199 90.8261L274.203 91.7719L273.447 92.6074L272.942 92.768L272.145 92.7717L271.377 92.6106L270.847 91.2368L268.529 72.4906L268.505 72.2959L268.356 72.1699L266.751 70.815L266.575 70.667L266.349 70.7032L261.764 71.4389L261.672 71.3876L260.984 65.1964L261.229 64.8189L266.245 63.7801Z" fill="#3D3A36" stroke="#1A1714"/>
</g>
<defs>
<clipPath id="clip0_76_4">
<rect width="40.6191" height="42.5307" fill="white" transform="translate(242 74.7069) rotate(-47)"/>
</clipPath>
</defs>
</svg>
