<svg width="388" height="461" viewBox="0 0 388 461" fill="none" xmlns="http://www.w3.org/2000/svg"><defs><mask id="hammer-gap-mask" maskUnits="userSpaceOnUse" x="0" y="0" width="388" height="461"><rect x="0" y="0" width="388" height="461" fill="white"/><path d="M 173.36 185.11 L 173.28 185.21 L 173.26 185.23 L 173.14 185.38 L 173.12 185.40 L 173.00 185.55 L 172.98 185.57 L 172.86 185.72 L 172.84 185.74 L 172.72 185.89 L 172.71 185.92 L 172.59 186.07 L 172.57 186.10 L 172.45 186.25 L 172.43 186.28 L 172.31 186.44 L 172.29 186.47 L 172.18 186.62 L 172.15 186.65 L 172.04 186.82 L 172.02 186.85 L 171.91 187.01 L 171.89 187.04 L 171.78 187.21 L 171.75 187.25 L 171.65 187.41 L 171.62 187.45 L 171.52 187.62 L 171.49 187.66 L 171.39 187.83 L 171.37 187.87 L 171.27 188.05 L 171.24 188.09 L 171.14 188.26 L 170.91 188.81 L 170.78 189.40 L 170.78 190.00 L 170.89 190.59 L 171.12 191.14 L 171.46 191.76 L 171.47 191.79 L 171.81 192.41 L 171.83 192.44 L 172.18 193.05 L 172.20 193.09 L 172.55 193.68 L 172.58 193.73 L 172.93 194.31 L 172.96 194.36 L 173.33 194.93 L 173.37 194.99 L 173.74 195.54 L 173.78 195.60 L 174.16 196.13 L 174.22 196.21 L 174.61 196.71 L 174.67 196.80 L 175.07 197.27 L 175.15 197.37 L 175.56 197.82 L 175.65 197.92 L 176.07 198.34 L 176.18 198.45 L 176.61 198.84 L 176.74 198.96 L 177.18 199.31 L 177.34 199.43 L 177.79 199.75 L 177.97 199.87 L 178.44 200.15 L 178.64 200.27 L 179.12 200.51 L 179.34 200.62 L 179.84 200.82 L 180.08 200.91 L 180.60 201.07 L 180.86 201.14 L 181.39 201.25 L 181.66 201.30 L 182.21 201.37 L 182.48 201.39 L 183.05 201.41 L 183.32 201.40 L 183.90 201.37 L 184.16 201.34 L 184.77 201.25 L 185.01 201.21 L 185.64 201.06 L 185.86 201.00 L 186.51 200.80 L 186.71 200.73 L 187.38 200.47 L 187.56 200.39 L 187.76 200.29 L 188.07 200.65 L 188.07 200.66 L 188.64 201.30 L 188.65 201.31 L 189.25 201.99 L 189.25 201.99 L 189.88 202.70 L 189.88 202.71 L 190.53 203.44 L 190.54 203.45 L 191.21 204.21 L 191.22 204.21 L 191.91 204.99 L 191.92 204.99 L 192.63 205.78 L 192.64 205.79 L 193.36 206.59 L 193.37 206.60 L 194.10 207.41 L 194.11 207.41 L 194.85 208.23 L 194.86 208.23 L 195.61 209.05 L 195.62 209.05 L 196.37 209.86 L 196.38 209.87 L 197.12 210.67 L 197.13 210.68 L 197.88 211.46 L 197.89 211.48 L 198.62 212.25 L 198.64 212.26 L 199.36 213.01 L 199.38 213.02 L 200.09 213.75 L 200.11 213.76 L 200.80 214.46 L 200.82 214.48 L 201.50 215.15 L 201.52 215.17 L 202.17 215.80 L 202.20 215.83 L 202.83 216.42 L 202.86 216.45 L 203.46 217.00 L 203.51 217.03 L 204.07 217.53 L 204.13 217.58 L 204.66 218.03 L 204.73 218.08 L 205.23 218.48 L 205.31 218.54 L 205.77 218.88 L 206.29 219.19 L 206.86 219.39 L 207.46 219.47 L 208.06 219.42 L 208.64 219.26 L 209.18 218.99 L 209.63 218.69 L 209.73 218.63 L 210.29 218.23 L 210.35 218.19 L 211.00 217.71 L 211.04 217.67 L 211.77 217.11 L 211.81 217.08 L 212.62 216.44 L 212.64 216.42 L 213.52 215.70 L 213.54 215.68 L 214.48 214.90 L 214.50 214.89 L 215.49 214.05 L 215.51 214.03 L 216.55 213.14 L 216.56 213.13 L 217.64 212.20 L 217.65 212.19 L 218.76 211.21 L 218.77 211.20 L 219.90 210.20 L 219.91 210.19 L 221.05 209.16 L 221.07 209.14 L 222.22 208.10 L 222.23 208.09 L 223.38 207.03 L 223.39 207.01 L 224.53 205.95 L 224.55 205.94 L 225.67 204.87 L 225.68 204.86 L 226.78 203.81 L 226.80 203.79 L 227.86 202.75 L 227.88 202.73 L 228.91 201.71 L 228.93 201.69 L 229.91 200.70 L 229.93 200.68 L 230.85 199.72 L 230.88 199.69 L 231.74 198.78 L 231.77 198.74 L 232.56 197.88 L 232.60 197.83 L 233.31 197.02 L 233.36 196.96 L 233.98 196.21 L 234.04 196.13 L 234.57 195.45 L 234.66 195.33 L 235.08 194.72 L 235.20 194.54 L 235.51 194.01 L 235.67 193.70 L 235.87 193.26 L 236.05 192.71 L 236.12 192.14 L 236.09 191.57 L 236.04 191.25 L 235.89 190.69 L 235.74 190.30 L 235.61 190.00 L 235.38 189.53 L 235.28 189.35 L 234.97 188.81 L 234.89 188.69 L 234.50 188.10 L 234.44 188.01 L 233.98 187.36 L 233.94 187.30 L 233.42 186.60 L 233.38 186.55 L 232.80 185.81 L 232.77 185.77 L 232.13 184.99 L 232.11 184.96 L 231.43 184.14 L 231.41 184.11 L 230.69 183.26 L 230.67 183.24 L 229.92 182.37 L 229.91 182.35 L 229.13 181.47 L 229.11 181.45 L 228.31 180.55 L 228.30 180.54 L 227.48 179.63 L 227.47 179.62 L 226.64 178.71 L 226.63 178.70 L 225.80 177.79 L 225.79 177.78 L 224.96 176.88 L 224.95 176.88 L 224.13 175.99 L 224.12 175.99 L 223.32 175.12 L 223.31 175.12 L 222.52 174.28 L 222.52 174.27 L 221.75 173.47 L 221.75 173.46 L 221.02 172.69 L 221.01 172.69 L 220.32 171.96 L 219.67 171.27 L 219.40 171.00 L 220.78 169.77 L 221.70 168.94 L 223.54 167.30 L 224.45 166.48 L 225.37 165.65 L 226.29 164.83 L 227.21 164.01 L 228.13 163.19 L 229.05 162.36 L 229.97 161.54 L 230.89 160.72 L 231.81 159.90 L 232.73 159.07 L 233.64 158.25 L 234.56 157.43 L 235.48 156.61 L 236.40 155.78 L 237.32 154.96 L 238.24 154.14 L 239.16 153.32 L 240.08 152.49 L 241.00 151.67 L 242.83 150.03 L 243.75 149.20 L 244.67 148.38 L 244.67 148.38 L 245.09 148.00 L 245.10 148.00 L 245.54 147.60 L 245.54 147.60 L 246.00 147.18 L 246.00 147.18 L 246.47 146.75 L 246.48 146.75 L 246.96 146.30 L 247.46 145.85 L 247.98 145.38 L 248.50 144.90 L 249.03 144.41 L 249.57 143.92 L 250.11 143.42 L 250.66 142.92 L 251.22 142.42 L 251.77 141.91 L 252.33 141.41 L 252.89 140.91 L 253.44 140.41 L 254.00 139.91 L 254.54 139.43 L 255.09 138.95 L 255.62 138.48 L 256.15 138.02 L 256.66 137.58 L 257.17 137.15 L 257.66 136.74 L 258.14 136.34 L 258.60 135.96 L 259.04 135.61 L 259.46 135.28 L 259.88 134.96 L 260.17 134.70 L 260.67 134.21 L 261.16 133.72 L 261.66 133.24 L 262.17 132.76 L 262.69 132.29 L 263.22 131.81 L 263.75 131.33 L 264.29 130.86 L 264.83 130.38 L 265.38 129.91 L 265.93 129.43 L 266.49 128.96 L 267.05 128.49 L 267.62 128.01 L 268.19 127.54 L 268.76 127.06 L 269.33 126.58 L 269.90 126.10 L 270.47 125.63 L 270.48 125.62 L 271.05 125.15 L 271.05 125.14 L 271.62 124.67 L 271.62 124.66 L 272.19 124.18 L 272.20 124.18 L 272.76 123.70 L 272.77 123.69 L 273.33 123.21 L 273.34 123.20 L 273.89 122.72 L 273.91 122.71 L 274.46 122.22 L 274.47 122.21 L 275.02 121.73 L 275.03 121.71 L 275.57 121.23 L 275.59 121.21 L 276.13 120.72 L 276.14 120.71 L 276.67 120.22 L 276.90 120.00 L 277.16 119.78 L 277.44 119.53 L 277.75 119.27 L 278.08 118.99 L 278.43 118.70 L 278.80 118.39 L 279.18 118.07 L 279.19 118.07 L 279.57 117.75 L 279.58 117.74 L 279.98 117.41 L 279.99 117.40 L 280.39 117.06 L 280.40 117.05 L 280.80 116.70 L 280.82 116.69 L 281.22 116.34 L 281.24 116.32 L 281.63 115.96 L 281.66 115.94 L 282.05 115.58 L 282.08 115.55 L 282.46 115.19 L 282.50 115.16 L 282.87 114.80 L 282.91 114.76 L 283.27 114.40 L 283.31 114.35 L 283.66 113.99 L 283.71 113.93 L 284.04 113.57 L 284.10 113.51 L 284.41 113.14 L 284.47 113.07 L 284.76 112.71 L 284.83 112.62 L 285.10 112.26 L 285.17 112.15 L 285.41 111.79 L 285.49 111.67 L 285.71 111.31 L 285.80 111.16 L 285.98 110.81 L 286.07 110.63 L 286.22 110.28 L 286.31 110.06 L 286.43 109.72 L 286.51 109.45 L 286.60 109.11 L 286.66 108.79 L 286.70 108.47 L 286.73 107.94 L 286.66 107.41 L 286.50 106.91 L 286.34 106.52 L 286.27 106.37 L 286.08 105.97 L 286.02 105.85 L 285.79 105.44 L 285.74 105.34 L 285.49 104.92 L 285.43 104.84 L 285.16 104.41 L 285.11 104.33 L 284.82 103.90 L 284.77 103.83 L 284.45 103.39 L 284.41 103.34 L 284.07 102.89 L 284.03 102.84 L 283.68 102.39 L 283.64 102.35 L 283.27 101.89 L 283.24 101.86 L 282.85 101.40 L 282.82 101.37 L 282.42 100.91 L 282.39 100.88 L 281.98 100.42 L 281.96 100.40 L 281.54 99.94 L 281.51 99.92 L 281.08 99.46 L 281.06 99.44 L 280.63 98.99 L 280.61 98.97 L 280.17 98.53 L 280.15 98.51 L 279.71 98.07 L 279.69 98.05 L 279.25 97.63 L 279.23 97.61 L 278.79 97.19 L 278.78 97.17 L 278.34 96.76 L 278.33 96.74 L 277.89 96.34 L 277.88 96.33 L 277.45 95.94 L 277.44 95.93 L 277.02 95.55 L 277.01 95.54 L 276.60 95.17 L 276.59 95.16 L 276.19 94.81 L 276.18 94.80 L 275.80 94.47 L 275.79 94.45 L 275.42 94.14 L 275.41 94.13 L 275.06 93.83 L 275.04 93.82 L 274.71 93.54 L 274.26 93.22 L 273.75 93.00 L 273.21 92.87 L 272.65 92.84 L 272.10 92.91 L 271.58 93.09 L 271.09 93.36 L 270.51 93.75 L 270.43 93.81 L 269.83 94.25 L 269.76 94.30 L 269.13 94.79 L 269.08 94.83 L 268.42 95.36 L 268.37 95.40 L 267.69 95.98 L 267.65 96.01 L 266.95 96.62 L 266.92 96.64 L 266.19 97.29 L 266.16 97.31 L 265.42 97.99 L 265.40 98.01 L 264.64 98.72 L 264.62 98.73 L 263.85 99.46 L 263.83 99.48 L 263.04 100.23 L 263.03 100.24 L 262.24 101.01 L 262.23 101.02 L 261.42 101.80 L 261.41 101.81 L 260.61 102.60 L 260.60 102.61 L 259.79 103.41 L 259.78 103.42 L 258.97 104.22 L 258.97 104.23 L 258.15 105.04 L 257.35 105.84 L 256.54 106.64 L 255.75 107.43 L 254.97 108.21 L 254.20 108.97 L 253.45 109.71 L 252.71 110.42 L 252.00 111.11 L 251.31 111.76 L 250.64 112.39 L 250.00 112.97 L 249.40 113.51 L 248.81 114.02 L 248.63 114.21 L 248.62 114.20 L 247.32 115.54 L 246.03 116.87 L 244.73 118.20 L 243.42 119.52 L 242.11 120.85 L 240.79 122.17 L 239.46 123.49 L 238.14 124.80 L 236.80 126.12 L 235.47 127.43 L 234.13 128.74 L 232.79 130.05 L 231.45 131.36 L 230.10 132.67 L 228.75 133.98 L 227.40 135.29 L 226.06 136.60 L 224.71 137.91 L 223.36 139.22 L 222.01 140.53 L 220.66 141.84 L 220.66 141.84 L 219.31 143.16 L 219.31 143.16 L 217.97 144.47 L 217.97 144.48 L 216.63 145.79 L 216.62 145.79 L 215.28 147.11 L 215.28 147.11 L 213.95 148.43 L 213.94 148.44 L 212.61 149.76 L 212.61 149.76 L 211.28 151.08 L 211.28 151.09 L 209.95 152.41 L 209.95 152.42 L 208.63 153.75 L 208.63 153.75 L 208.48 153.91 L 208.32 154.06 L 208.17 154.21 L 208.02 154.37 L 207.86 154.52 L 207.71 154.68 L 207.55 154.84 L 207.39 154.99 L 207.23 155.15 L 207.08 155.30 L 206.92 155.46 L 206.76 155.61 L 206.60 155.77 L 206.44 155.92 L 206.28 156.08 L 206.12 156.23 L 206.06 156.28 L 205.60 155.76 L 204.98 155.07 L 204.33 154.35 L 203.66 153.59 L 202.96 152.81 L 202.96 152.81 L 202.24 152.01 L 202.24 152.00 L 201.50 151.19 L 201.50 151.18 L 200.75 150.35 L 200.75 150.35 L 199.99 149.51 L 199.98 149.50 L 199.22 148.66 L 199.21 148.66 L 198.44 147.82 L 198.43 147.81 L 197.67 146.98 L 197.66 146.97 L 196.89 146.16 L 196.88 146.15 L 196.13 145.35 L 196.11 145.33 L 195.37 144.56 L 195.35 144.54 L 194.62 143.79 L 194.60 143.77 L 193.88 143.05 L 193.86 143.03 L 193.17 142.34 L 193.14 142.32 L 192.47 141.67 L 192.43 141.64 L 191.79 141.04 L 191.75 141.01 L 191.14 140.46 L 191.08 140.41 L 190.51 139.92 L 190.44 139.86 L 189.90 139.43 L 189.80 139.36 L 189.31 138.99 L 189.18 138.90 L 188.72 138.59 L 188.53 138.48 L 188.12 138.25 L 187.60 138.02 L 187.05 137.90 L 186.48 137.88 L 185.92 137.96 L 185.49 138.07 L 185.04 138.23 L 184.49 138.46 L 184.26 138.58 L 183.60 138.93 L 183.46 139.01 L 182.70 139.48 L 182.61 139.54 L 181.76 140.10 L 181.69 140.15 L 180.77 140.81 L 180.72 140.85 L 179.72 141.59 L 179.68 141.63 L 178.62 142.45 L 178.59 142.47 L 177.48 143.36 L 177.45 143.39 L 176.30 144.33 L 176.27 144.36 L 175.09 145.35 L 175.06 145.38 L 173.86 146.42 L 173.83 146.44 L 172.61 147.52 L 172.59 147.54 L 171.36 148.64 L 171.34 148.66 L 170.11 149.78 L 170.09 149.80 L 168.87 150.94 L 168.85 150.96 L 167.66 152.09 L 167.63 152.11 L 166.47 153.24 L 166.45 153.27 L 165.33 154.38 L 165.30 154.41 L 164.23 155.50 L 164.20 155.53 L 163.18 156.59 L 163.15 156.63 L 162.21 157.65 L 162.17 157.69 L 161.30 158.67 L 161.25 158.72 L 160.47 159.64 L 160.42 159.70 L 159.73 160.56 L 159.66 160.65 L 159.08 161.43 L 158.99 161.56 L 158.52 162.26 L 158.40 162.46 L 158.06 163.07 L 157.90 163.40 L 157.68 163.92 L 157.50 164.55 L 157.43 164.96 L 157.39 165.52 L 157.45 166.08 L 157.62 166.62 L 157.82 167.12 L 157.91 167.32 L 158.18 167.85 L 158.26 168.00 L 158.59 168.56 L 158.66 168.67 L 159.04 169.27 L 159.09 169.36 L 159.52 169.98 L 159.57 170.05 L 160.05 170.70 L 160.09 170.76 L 160.61 171.43 L 160.64 171.47 L 161.20 172.16 L 161.23 172.20 L 161.82 172.91 L 161.85 172.94 L 162.46 173.66 L 162.49 173.69 L 163.13 174.42 L 163.15 174.45 L 163.82 175.19 L 163.84 175.21 L 164.52 175.96 L 164.54 175.98 L 165.24 176.73 L 165.25 176.74 L 165.96 177.49 L 165.97 177.51 L 166.69 178.26 L 166.70 178.27 L 167.42 179.02 L 167.43 179.02 L 168.14 179.76 L 168.15 179.77 L 168.86 180.50 L 168.87 180.51 L 169.57 181.22 L 169.57 181.23 L 170.26 181.93 L 170.94 182.62 L 171.59 183.28 L 172.21 183.92 L 172.80 184.53 L 173.36 185.11 L 173.36 185.11 Z" fill="black"/></mask></defs>
<path d="M15.8273 0.459948C32.2958 -0.455872 55.2109 0.276255 72.3035 0.291197L175.85 0.310978L307.773 0.314492C327.552 0.32416 347.291 0.305706 367.117 0.260003C378.692 0.0719167 387.079 8.03392 387.048 19.7062C387.026 29.1879 387.119 38.9732 387.11 48.5462L387.061 120.961L387.092 335.172C387.097 370.579 387.053 405.986 387.114 441.393C387.132 451.469 381.14 457.96 371.737 460.614C368.119 461.063 361.394 460.913 357.639 460.918L333.295 460.913L252.934 460.896L97.2614 460.9C71.58 460.904 45.9882 460.869 20.2136 460.931C8.80176 461.34 -0.0489914 452.986 0.0547524 441.445C0.135198 432.459 0.0455184 422.997 0.053431 413.83L0.0828843 337.928L0.0692544 122.141L0.0556311 56.1426C0.0336515 43.9671 -0.049434 31.7842 0.0420012 19.61C0.120688 9.12376 6.0253 3.01757 15.8273 0.459948Z M16.0599 5.2785C20.1916 4.91375 28.5918 5.15106 33.0655 5.15721L64.6849 5.19193L166.886 5.18182L300.831 5.18533L344.346 5.14754C352.426 5.14095 360.528 5.05218 368.59 5.29564C376.036 5.47449 382.125 11.7187 382.331 19.1476C382.564 27.601 382.459 36.111 382.45 44.5871V90.2841L382.424 233.342L382.432 373.941L382.468 418.923C382.468 426.662 382.507 434.462 382.375 442.166C382.274 447.945 378.577 452.238 373.627 454.699C371.047 455.987 370.199 455.851 367.284 456.004L135.088 456.053L58.2036 456.022C51.0189 456.022 18.6829 456.932 13.6302 454.822C10.0366 453.311 7.21483 450.397 5.81561 446.758C3.72183 441.445 4.76191 386.646 4.75531 377.149L4.70915 241.358L4.75927 88.4854C4.79971 65.9424 4.66563 43.3439 4.75311 20.7991C4.76234 18.412 5.0349 16.0416 6.07629 13.8755C8.46196 8.91497 11.18 7.20506 16.0599 5.2785Z" fill="#000000" fill-rule="evenodd"/>
<path d="M201.262 224.694C208.143 224.206 217.061 224.514 223.995 224.615C233.656 224.764 243.318 224.817 252.98 224.777L285.07 224.729C291.09 224.698 298.972 224.373 304.782 224.896C304.834 225.292 304.88 225.692 304.92 226.087C305.329 230.218 304.988 234.911 305.21 239.06C305.286 240.479 305.375 249.246 304.105 249.527C296.984 251.105 290.392 250.942 283.071 252.454C266.639 255.922 248.593 262.399 237.469 275.552C225.876 289.267 231.668 307.39 249.343 310.915C252.467 311.539 262.203 311.552 263.674 312.747C265.282 316.948 265.241 339.391 263.64 343.417C261.256 345.319 222.829 344.361 216.587 344.252C215.807 342.709 214.853 340.468 213.989 339.057C206.756 327.249 187.803 328.005 177.285 334.228C173.268 337.792 173 339.273 170.959 344.19L170.693 344.212C168.749 344.375 160.98 344.59 159.25 344.405C153.751 343.83 126.377 345.834 123.243 343.197C122.001 340.31 121.874 316.711 123.162 313.31C125.278 311.504 133.182 311.754 136.612 311.271C139.316 310.902 141.955 310.15 144.449 309.043C154.129 304.639 158.189 294.927 154.537 285.013C151.632 277.13 136.243 277.406 129.182 276.259C124.214 275.429 119.327 274.176 114.575 272.511C97.4162 266.671 78.7462 254.493 70.3931 237.711C69.5763 236.067 69.0941 234.397 69.7311 232.639C70.7597 231.796 71.1452 231.664 72.675 231.637C80.5938 231.492 88.7149 231.571 96.6183 231.585C112.548 231.655 128.479 231.615 144.409 231.462C144.59 229.343 144.592 226.83 145.763 225.138C148.251 224.443 163.389 224.857 166.659 224.879C178.194 225.01 189.73 224.949 201.262 224.694Z" fill="#000000"/>
<path d="M150.573 230.143L299.898 230.174C299.813 234.995 299.828 239.816 299.944 244.636C277.966 245.753 255.288 251.694 238.141 266.407C219.324 282.557 221.131 308.726 246.401 316.294C250.46 317.506 254.483 317.577 258.71 317.757C258.584 324.687 258.588 331.617 258.723 338.547C246.805 338.165 232.361 338.547 220.27 338.556C217.317 332.325 215.18 330.132 209.141 327.135C208.134 326.717 207.111 326.335 206.076 325.992C193.31 321.677 172.137 323.685 167.237 338.495C154.65 338.75 141.187 338.464 128.528 338.407L128.431 317.673C136.261 317.625 141.009 317.383 148.304 313.516C159.568 307.544 165.738 292.875 159.123 281.313C153.681 271.821 143.945 272.761 134.828 271.443C112.638 268.239 88.4673 256.831 76.7113 237.289C98.8536 236.704 122.341 237.196 144.635 237.056C144.611 240.624 143.79 249.299 147.353 251.022C148.778 250.762 148.928 250.437 150.023 249.365C151.293 246.267 150.611 234.142 150.573 230.143Z" fill="#000000"/>
<path d="M182.21 50.2482C185.44 51.737 188.428 53.668 191.389 55.624C219.206 73.9997 226.066 101.135 216.897 131.968C230.497 123.295 234.996 108.535 231.956 93.1467C240.693 101.389 244.028 106.614 250.775 116.286C256.688 111.249 267.185 99.4986 272.781 95.8353C275.982 98.5164 282.269 104.261 283.73 108.064C283.487 111.283 277.126 115.677 274.631 118.016C269.378 122.939 263.093 127.487 258.052 132.579C266.552 149.942 264.528 178.217 255.065 195.041C246.117 210.95 236.018 216.759 219.176 221.961C225.195 216.141 227.508 211.945 230.246 204.113C205.769 226.135 211.222 230.205 187.169 204.254C185.666 204.469 182.167 204.963 180.44 204.502C173.664 202.694 166.677 189.835 163.529 183.712C162.445 181.604 164.014 180.046 162.297 177.341L161.665 177.235C159.058 181.236 158.725 192.737 159.393 197.796C160.921 209.379 165.916 215.083 174.538 221.939C169.548 220.827 163.674 219.053 159.023 216.996C146.853 211.629 137.316 201.646 132.515 189.244C121.725 161.004 136.412 140.947 149.522 117.638C153.198 111.102 152.861 103.991 150.154 97.0622C168.977 114.41 153.452 122.322 165.069 136.808C165.181 129.117 166.027 121.597 169.74 114.748C182.358 91.4702 199.214 77.7874 182.21 50.2482Z" fill="#000000" mask="url(#hammer-gap-mask)"/>
<path d="M250.775 116.286C256.688 111.249 267.185 99.4986 272.781 95.8353C275.982 98.5164 282.269 104.261 283.73 108.064C283.487 111.283 277.126 115.677 274.631 118.016C269.378 122.939 263.093 127.487 258.052 132.579C253.849 135.763 246.768 142.478 242.67 146.147L215.103 170.821C218.153 174.108 233.105 189.298 233.124 192.043C231.796 195.975 211.565 214.045 207.55 216.467C203.174 213.393 192.341 200.984 188.421 196.5C180.914 201.417 177.103 195.997 173.767 189.721C174.733 187.946 176.064 186.581 177.402 185.065C173.654 180.744 162.134 170.243 160.387 165.47C160.358 161.897 182.983 141.31 186.659 140.87C190.475 142.757 201.974 156.382 205.87 160.526C207.513 159.104 209.232 157.41 210.763 155.86C223.898 142.567 237.837 129.736 250.775 116.286Z" fill="#000000"/>
<path d="M236.458 365.662C240.689 365.244 244.871 365.996 248.409 368.435C251.958 370.856 254.352 374.631 255.029 378.876C256.749 389.511 250.103 396.428 239.936 397.953C235.389 398.278 230.809 397.373 227.133 394.564C223.687 391.919 221.434 388.012 220.87 383.706C219.61 373.532 226.874 366.866 236.458 365.662Z M236.882 371.959C242.315 371.322 247.228 375.229 247.829 380.665C248.431 386.096 244.49 390.983 239.049 391.55C233.659 392.108 228.829 388.214 228.233 382.831C227.637 377.443 231.501 372.592 236.882 371.959Z" fill="#000000" fill-rule="evenodd"/>

<path d="M161.076 365.908C171.418 365.846 192.043 362.867 188.343 380.788C187.664 384.079 185.075 385.956 182.316 387.573C183.67 389.471 188.403 395.364 188.439 397.285L187.069 397.579L181.449 397.566C179.339 394.639 177.297 391.967 175.623 388.759L168.82 388.698L168.984 397.513L161.071 397.557C161.191 387.006 161.193 376.455 161.076 365.908Z M168.962 371.854C175.227 372.623 184.077 370.808 180.063 381.232C176.449 383.394 173.243 382.809 168.969 382.73L168.962 371.854Z" fill="#000000" fill-rule="evenodd"/>

<path d="M260.503 365.899C270.517 365.824 289.464 363.06 287.67 379.54C287.297 382.967 284.178 385.591 281.525 387.45C282.639 389.168 287.797 395.896 288.035 397.214L286.857 397.513L281.037 397.584C278.746 394.956 276.334 391.748 274.604 388.733L267.834 388.799L267.892 397.478L260.485 397.57L260.503 365.899Z M267.825 372.135C273.616 372.082 285.415 372.258 278.743 381.5C275.407 383.583 271.759 382.989 267.837 382.844L267.825 372.135Z" fill="#000000" fill-rule="evenodd"/>

<path d="M136.789 365.798C138.931 365.903 141.678 365.829 143.87 365.833C148.833 375.831 153.629 388.553 158.473 397.469C155.857 397.575 153.02 397.553 150.384 397.584C149.264 394.064 149.237 391.233 145.308 391.04L133.064 391.159C131.952 393.532 131.252 395.105 130.404 397.575L122.386 397.579C127.402 387.063 131.836 376.094 136.789 365.798Z M140.141 373.827C141.819 375.892 144.206 382.198 144.969 384.835C144.003 385.507 143.159 385.279 141.791 385.301L135.477 385.195C136.457 382.049 138.806 377.175 140.141 373.827Z" fill="#000000" fill-rule="evenodd"/>

<path d="M327.725 365.881L351.749 365.952L351.767 372.095L335.506 372.087L335.449 378.692L350.03 378.612L350.043 384.404L335.598 384.382C335.282 385.903 335.436 389.862 335.449 391.594L352.224 391.519L352.272 397.548C344.258 397.395 335.994 397.469 327.957 397.443C328.006 386.923 327.928 376.398 327.725 365.881Z" fill="#000000"/>
<path d="M96.6279 365.921L120.66 365.873L120.629 372.051C115.106 372.007 109.584 371.893 104.065 371.704L103.994 378.586C108.976 378.555 113.959 378.568 118.941 378.63L119.014 384.4L105.113 384.396L104.309 384.694C103.784 386.448 103.993 389.656 104.025 391.625C109.695 391.572 115.365 391.55 121.035 391.559L121.022 397.601L96.8117 397.584C96.4297 387.555 96.7453 376.151 96.6279 365.921Z" fill="#000000"/>
<path d="M307.075 365.671C313.313 364.963 317.779 366.554 322.034 371.036L317.399 375.33C309.979 370.219 303.612 370.443 299.069 378.933C298.741 385.398 299.747 387.107 304.582 391.264C308.713 392.108 310.413 391.708 314.51 390.987C314.504 388.755 314.23 383.46 314.724 381.675L315.652 381.337L321.401 381.328L321.606 394.156C314.398 398.405 305.179 399.957 298.025 394.745C294.567 392.24 292.295 388.421 291.741 384.189C290.297 373.669 296.917 366.809 307.075 365.671Z" fill="#000000"/>
<path d="M48.315 365.64C56.1916 365.011 59.2727 365.763 65.1597 371.001C63.5033 372.341 61.7731 373.998 60.1861 375.457C56.9099 372.706 53.5092 370.984 49.1291 372.135C46.6678 372.781 44.5811 374.411 43.3581 376.644C41.4371 380.199 41.9075 383.363 43.0548 387.015L47.5861 391.225C48.6899 391.444 49.8012 391.62 50.9182 391.748C54.518 392.152 56.1292 391.299 58.754 389.168C59.0502 388.878 59.5663 388.619 59.929 388.399C61.5146 389.01 62.9028 390.087 63.5745 391.669C64.0787 398.775 47.3905 399.271 42.5233 395.826C30.0029 386.971 32.5709 369.511 48.315 365.64Z" fill="#000000"/>
<path d="M194.619 365.895L218.076 365.921L218.118 372.113L201.908 372.073L201.869 380.058C206.235 380.036 211.713 379.869 215.971 380.212L216.483 380.871C216.503 382.638 216.682 384.194 216.054 385.811C214.063 386.347 204.42 386.074 201.937 386.057L202.041 397.483L194.666 397.5C194.54 386.966 194.524 376.428 194.619 365.895Z" fill="#000000"/>
<path d="M69.4686 365.908L77.0445 365.965L76.9803 391.493L92.8131 391.546L92.7428 397.597C85.304 397.777 77.0876 397.592 69.5855 397.584C69.4831 387.028 69.4444 376.468 69.4686 365.908Z" fill="#000000"/>
</svg>