<svg width="344" height="462" viewBox="0 0 344 462" fill="none" xmlns="http://www.w3.org/2000/svg">
<path d="M125.498 174.596C172.211 175.23 220.275 174.788 267.056 174.655L267.04 190.669C248.707 191.653 228.843 197.431 214.626 209.497C205.636 217.127 197.533 232.885 207.183 243.146C213.74 250.12 222.864 250.635 231.815 250.977L231.716 270.911C219.356 270.691 206.162 270.889 193.786 270.973C191.877 266.622 190.178 264.425 186.582 261.414C172.902 253.785 156.154 255.332 149.302 270.871L111.03 270.977L110.938 251.118C118.209 250.722 124.952 250.103 131.552 246.578C139.341 242.421 142.397 233.21 137.788 225.507C133.155 217.762 121.4 219.288 113.677 218.3C109.046 217.707 104.272 217.11 99.7141 215.988C78.5712 210.067 60.9409 200.995 49.4424 182.04C70.7207 181.133 92.2846 183.08 113.485 181.424C117.497 181.111 121.427 181.256 125.439 181.39L125.498 174.596Z" fill="#C66A4F"/>
<path d="M157.855 0C165.842 1.58599 179.54 12.0313 184.895 18.5054C199.348 35.9776 201.683 52.3965 200.058 74.0769C213.088 62.7671 207.525 51.1449 221.66 41.5415C221.63 58.0197 225.746 62.9003 234.008 76.4917C224.395 82.5122 209.118 89.3747 198.572 94.9346L192.479 93.7362C180.049 77.3451 184.531 66.5275 161.379 78.6015C140.402 89.5408 142.547 88.8434 151.394 109.821C146.193 117.028 146.504 122.533 146.602 130.972C142.073 128.649 140.929 127.841 137.551 124.053C134.711 120.03 134.314 116.754 133.798 112.075C120.043 129.543 122.223 152.065 138.726 166.899L132.452 166.936L130.77 165.918C101.722 148.129 91.5554 111.131 108.97 81.7928C116.622 68.901 127.583 56.6209 123.729 40.6639C135.767 48.2933 137.779 58.1243 137.825 71.3711C150.969 59.9467 160.023 47.6288 162.495 29.8938C164.097 18.3977 161.311 10.579 157.855 0Z" fill="#C66A4F"/>
<path d="M92.5751 388.847C112.577 387.19 130.188 401.934 132.062 421.916C133.936 441.893 119.375 459.656 99.4129 461.744C86.3088 463.115 73.4789 457.34 65.816 446.622C58.1536 435.908 56.8398 421.903 62.376 409.95C67.9123 397.997 79.4446 389.937 92.5751 388.847Z" fill="#C66A4F"/>
<path d="M280.892 293.033C292.92 293.002 311.522 291.899 322.713 294.598C344.827 299.928 348.137 328.888 327.144 340.195C330.08 345.174 339.188 357.707 342.722 362.436L336.247 362.541L324.643 362.462C320.612 356.574 315.781 348.448 311.522 343.091L296.942 342.999L296.937 362.484C291.547 362.563 286.157 362.572 280.767 362.515C280.838 339.663 280.449 315.74 280.892 293.033Z" fill="#C66A4F"/>
<path d="M144.656 391.176C156.498 391.079 174.859 389.902 185.87 392.631C207.442 397.979 210.599 426.855 189.851 437.596L205.295 459.858L197.447 459.911L187.979 459.981C183.702 453.411 179.331 446.899 174.869 440.452L160.348 440.382C160.336 446.837 160.449 453.403 160.507 459.871L144.659 459.977C144.286 436.91 144.852 414.164 144.656 391.176Z" fill="#C66A4F"/>
<path d="M173.602 79.8262L175.536 79.9489C177.447 81.207 186.53 96.8001 188.689 100.07C191.654 100.21 194.618 100.386 197.579 100.596C201.064 104.83 205.423 113.209 206.656 118.532C205.868 120.697 204.152 123.96 203.096 126.12C205.712 131.651 209.548 137.043 212.384 142.592C215.718 149.117 208.144 150.847 203.11 153.442C198.473 155.816 193.895 158.303 189.379 160.899L185.458 162.294C180.596 155.86 178.13 148.261 173.706 141.841L165.581 140.55C161.613 135.19 157.925 127.84 155.674 121.567C156.209 119.832 158.961 114.653 159.934 112.588C157.45 107.357 152.885 97.0748 151.335 92.0197C156.154 88.7392 168.092 82.7495 173.602 79.8262Z" fill="#C66A4F"/>
<path d="M226.477 292.919C231.66 293.099 237.453 292.967 242.68 292.967C252.523 315.977 264.136 339.496 273.562 362.467C267.966 362.44 262.371 362.471 256.776 362.55C254.655 358.002 252.586 352.702 250.642 348.026L241.403 348.013L218.184 347.943C215.998 351.977 213.966 357.91 211.693 362.537C206.227 362.629 200.761 362.66 195.294 362.625C197.217 356.754 203.083 344.998 205.848 338.894L226.477 292.919Z" fill="#C66A4F"/>
<path d="M137.408 293.007L190.155 293.077L190.082 306.129C178.015 305.922 165.75 306.247 153.612 306.094L153.656 321.171L186.16 321.132C186.078 325.188 186.156 329.437 186.173 333.507C175.591 333.682 165.006 333.753 154.423 333.713L153.737 334.126C153.325 336.908 153.58 346.295 153.601 349.578C165.878 349.89 179.298 349.626 191.743 349.701L191.805 362.594C173.682 362.44 155.558 362.453 137.435 362.642C137.949 340.191 137.429 315.661 137.408 293.007Z" fill="#C66A4F"/>
<path d="M290.803 391.181L342.322 391.084L342.159 404.109C332.995 403.389 316.599 403.916 306.705 403.898L306.634 418.747C316.067 418.515 329.131 418.523 338.485 418.91C338.26 422.619 338.326 427.194 338.287 430.973L307.816 431.017L307.208 431.127C306.194 432.757 306.659 444.17 306.695 446.943C319.131 447.004 331.566 446.982 344.006 446.877L343.988 459.902L290.718 459.951L290.803 391.181Z" fill="#C66A4F"/>
<path d="M247.316 389.849C260.562 389.858 268.589 392.806 277.886 401.908C274.245 404.663 270.779 408.218 267.491 411.435C259.812 403.872 249.248 401.152 239.234 405.858C234.346 408.174 230.62 412.389 228.924 417.521C221.889 438.162 242.754 454.229 261.824 444.073L261.718 424.078L268.857 424.056L276.682 424.157C276.639 433.394 276.657 442.636 276.737 451.873C270.457 456.589 260.038 460.135 252.333 460.79C202.529 465.026 195.985 392.982 247.316 389.849Z" fill="#C66A4F"/>
<path d="M32.1444 292.238C46.3866 291.056 56.7352 293.657 66.7615 304.345L56.1967 314.056C50.9215 309.196 46.7356 306.058 39.1215 305.672C33.3941 305.39 27.7892 307.399 23.5461 311.253C9.05472 324.568 18.0653 351.296 38.5725 349.907C46.471 349.371 49.0864 348.562 54.8244 342.986L55.7813 342.041C57.9422 342.225 64.729 349.283 66.7703 351.208C55.0934 365.833 28.922 368.109 14.689 356.947C-11.3932 336.491 -1.00199 297.037 32.1444 292.238Z" fill="#C66A4F"/>
<path d="M0.749222 391.106C17.9457 391.251 35.1716 390.877 52.3769 391.141L52.4657 403.815C41.831 403.38 27.6877 403.828 16.6692 403.81C16.4675 409.537 16.7031 416.243 16.7672 422.039C21.2429 421.951 45.3721 421.411 47.9176 422.579L48.1277 423.836L48.1844 434.493C37.7769 434.809 27.2152 434.607 16.7919 434.502C16.54 442.698 16.6626 451.522 16.6327 459.766L0.824396 459.959L0.749222 391.106Z" fill="#C66A4F"/>
<path d="M288.764 55.5693C288.827 55.5702 288.893 55.5517 288.953 55.5715C290.589 56.1098 297.231 70.5169 298.45 72.9299C294.732 74.5524 290.711 76.6679 287.137 78.598C262.632 91.8317 237.016 103.667 212.642 117.041L211.878 117.428L211.283 117.041C211.257 110.406 207.304 104.485 203.537 99.3265C211.685 96.3352 226.283 88.0111 234.421 83.8011C252.619 74.5519 270.734 65.141 288.764 55.5693Z" fill="#C66A4F"/>
<path d="M77.1664 292.989C82.5796 293.09 88.184 293.024 93.6139 293.037C93.7356 311.833 93.711 330.628 93.5396 349.419C105.055 349.393 117.109 349.213 128.577 349.569C128.559 353.686 128.637 357.874 128.676 361.996C127.677 362.968 112.669 362.559 110.464 362.55C99.38 362.462 88.2943 362.475 77.2099 362.581C76.8921 339.584 77.1778 316.047 77.1664 292.989Z" fill="#C66A4F"/>
<path d="M0.638458 375.079L225.261 375.048L304.355 375.114C314.832 375.127 332.388 374.473 342.353 375.206C343.14 376.529 342.801 377.083 342.722 378.867C330.388 378.278 314.841 378.731 302.333 378.74L233.995 378.683L91.0802 378.7C61.3492 378.713 30.9853 379.016 1.3123 378.678C0.427025 377.619 0.712304 376.753 0.638458 375.079Z" fill="#C66A4F"/>
<path d="M244.545 107.963C244.833 109.191 244.973 113.342 244.941 114.736C244.578 130.627 237.13 146.94 225.596 157.857C222.199 161.071 216.614 165.769 211.958 166.727C211.166 166.89 206.172 166.803 205.107 166.787C206.883 165.455 208.761 163.837 210.491 162.409C227.729 146.227 218.515 141.833 210.413 125.167C220.256 121.094 234.217 112.949 244.545 107.963Z" fill="#C66A4F"/>
</svg>